<svg width="396" height="68" viewBox="0 0 396 68" fill="none" xmlns="http://www.w3.org/2000/svg">
<g clip-path="url(#clip0_188_183)">
<path d="M45.2467 4.10421V53.606C45.2467 58.129 43.739 61.5073 40.7237 63.7409C39.2719 64.8019 37.7809 65.6227 36.2509 66.2035C34.7098 66.7954 33.2133 67.0913 31.7614 67.0913H13.5019C12.05 67.0913 10.5591 66.7954 9.02912 66.2035C7.48794 65.6227 5.99144 64.8019 4.53961 63.7409C3.08778 62.6241 1.97099 61.2449 1.18923 59.6032C0.407479 57.9504 0.0166016 55.9513 0.0166016 53.606V4.10421C0.0166016 1.42391 1.66387 0.0837582 4.95841 0.0837582C8.30878 0.0837582 9.98397 1.42391 9.98397 4.10421V52.936C9.98397 54.3878 10.4028 55.7 11.2404 56.8727C12.078 58.0453 13.5298 58.6316 15.5959 58.6316H29.6674C31.7335 58.6316 33.1853 58.0453 34.0229 56.8727C34.8605 55.7 35.2793 54.3878 35.2793 52.936V4.10421C35.2793 1.42391 36.9266 0.0837582 40.2211 0.0837582C43.5715 0.0837582 45.2467 1.42391 45.2467 4.10421ZM95.1673 49.4181V4.10421C95.1673 1.42391 96.8146 0.0837582 100.109 0.0837582C103.404 0.0837582 105.051 1.42391 105.051 4.10421V61.8982C105.051 63.8526 104.018 65.2765 101.952 66.17H102.036C101.142 66.5608 100.193 66.8679 99.1878 67.0913C98.1827 67.3147 97.2055 67.4263 96.2562 67.4263C95.5303 67.4263 94.7764 67.3593 93.9947 67.2253C93.2129 67.0801 92.4703 66.8512 91.7667 66.5385C91.0743 66.237 90.4321 65.8182 89.8402 65.2821C89.2595 64.7572 88.8016 64.1039 88.4666 63.3221L70.2908 18.0083L68.0293 18.2596V63.4897C68.0293 66.17 66.3541 67.5101 63.0037 67.5101C59.7092 67.5101 58.0619 66.17 58.0619 63.4897V5.7794C58.0619 3.48998 59.067 1.95439 61.0772 1.17263C62.9199 0.446718 64.8743 0.0837582 66.9404 0.0837582C68.3922 0.0837582 69.8552 0.374125 71.3294 0.954857C72.8147 1.54676 73.9483 2.65238 74.73 4.27173L92.822 49.6693L95.1673 49.4181ZM127.833 4.10421V63.4897C127.833 66.17 126.158 67.5101 122.808 67.5101C119.513 67.5101 117.866 66.17 117.866 63.4897V4.10421C117.866 1.42391 119.513 0.0837582 122.808 0.0837582C126.158 0.0837582 127.833 1.42391 127.833 4.10421ZM160.902 67.4263C159.785 67.4263 158.601 67.2421 157.35 66.8735C156.088 66.5162 155.178 65.8349 154.62 64.8298C153.335 60.4743 151.995 56.0071 150.599 51.4283C149.203 46.8494 147.807 42.3544 146.411 37.943C144.848 32.7499 143.173 27.3447 141.386 21.7272C139.599 16.1209 137.924 10.7491 136.36 5.61188C136.025 4.38341 136.221 3.3057 136.947 2.37876C137.672 1.463 138.705 0.781756 140.046 0.335039C140.883 0.111681 141.609 0 142.223 0C144.122 0 145.35 0.949275 145.909 2.84782L152.107 22.6988C152.665 24.709 153.324 26.9147 154.084 29.3158C154.832 31.7169 155.597 34.1738 156.379 36.6866C157.16 39.1994 157.942 41.6954 158.724 44.1747C159.506 46.6652 160.232 48.9713 160.902 51.0933C161.963 47.5754 163.124 43.7671 164.386 39.6685C165.637 35.5587 166.921 31.3819 168.239 27.1381C169.546 22.8942 170.841 18.6895 172.125 14.5239C173.41 10.3694 174.61 6.4774 175.727 2.84782C176.341 0.949275 177.542 0 179.329 0C179.999 0 180.781 0.111681 181.674 0.335039C184.745 1.17263 185.946 2.93158 185.276 5.61188C182.26 15.3838 179.217 25.2395 176.146 35.179C173.075 45.1184 170.031 55.002 167.016 64.8298C166.569 65.9466 165.749 66.6558 164.554 66.9573C163.347 67.27 162.13 67.4263 160.902 67.4263ZM229.249 67.0913H198.593C196.527 67.0913 195.131 66.5608 194.405 65.4999C193.68 64.4389 193.317 63.2663 193.317 61.982V5.52812C193.317 4.24381 193.68 3.08235 194.405 2.04373C195.131 1.01628 196.527 0.502555 198.593 0.502555H227.742C229.808 0.502555 230.897 1.89855 231.008 4.69053C231.12 7.53835 230.031 8.96226 227.742 8.96226H203.2V58.6316H229.249C231.315 58.6316 232.376 59.9997 232.432 62.7358C232.544 65.6395 231.483 67.0913 229.249 67.0913ZM224.643 32.4149C224.643 34.3693 223.956 36.0166 222.582 37.3567C221.22 38.6969 219.561 39.3669 217.607 39.3669C215.708 39.3669 214.089 38.6969 212.749 37.3567C211.409 36.0166 210.739 34.3693 210.739 32.4149C210.739 30.4605 211.409 28.8132 212.749 27.4731C214.089 26.1329 215.708 25.4629 217.607 25.4629C219.561 25.4629 221.22 26.1329 222.582 27.4731C223.956 28.8132 224.643 30.4605 224.643 32.4149ZM281.013 66.0024L265.182 39.4507H258.733C257.783 39.4507 257.041 39.071 256.505 38.3116C255.98 37.5633 255.717 36.547 255.717 35.2627C255.717 32.4149 256.89 30.991 259.235 30.991H269.035C271.101 30.991 272.553 30.4047 273.391 29.232C274.228 28.0594 274.647 26.7751 274.647 25.3791V14.5741C274.647 13.1782 274.228 11.8938 273.391 10.7212C272.553 9.54858 271.101 8.96226 269.035 8.96226H251.362V63.5734C251.362 66.2537 249.715 67.5939 246.42 67.5939C243.126 67.5939 241.478 66.2537 241.478 63.5734V5.52812C241.478 3.51789 241.992 2.17775 243.019 1.50767C244.058 0.837597 245.303 0.502555 246.755 0.502555H271.129C272.581 0.502555 274.089 0.809672 275.652 1.42391C277.216 2.03814 278.723 2.8199 280.175 3.76917H280.091C281.543 4.83013 282.66 6.21495 283.442 7.92364C284.224 9.62117 284.614 11.5867 284.614 13.8203V26.0492C284.614 30.5722 283.107 33.9505 280.091 36.1841C279.477 36.6308 278.818 37.0496 278.115 37.4405C277.422 37.8313 276.713 38.2222 275.987 38.6131L289.389 60.7256C289.556 61.0048 289.724 61.3677 289.891 61.8145C290.059 62.2612 290.143 62.6241 290.143 62.9033C290.143 64.2435 289.193 65.5278 287.295 66.7563V66.6725C286.01 67.4543 284.922 67.8451 284.028 67.8451C282.744 67.8451 281.711 67.203 280.929 65.9187L281.013 66.0024ZM313.511 28.7295H329.677C331.129 28.7295 332.636 29.0366 334.2 29.6508C335.763 30.2651 337.271 31.0747 338.723 32.0799H338.639C340.091 33.085 341.208 34.453 341.99 36.1841C342.771 37.9151 343.162 39.8974 343.162 42.131V53.606C343.162 58.129 341.655 61.5073 338.639 63.7409C337.187 64.8019 335.691 65.6227 334.15 66.2035C332.62 66.7954 331.129 67.0913 329.677 67.0913H311.417C309.966 67.0913 308.469 66.7954 306.928 66.2035C305.398 65.6227 303.907 64.8019 302.455 63.7409C299.44 61.5073 297.932 58.129 297.932 53.606V48.0779C297.932 45.4535 299.579 44.1412 302.874 44.1412C306.224 44.1412 307.9 45.4535 307.9 48.0779V52.936C307.9 54.3878 308.318 55.7 309.156 56.8727C309.994 58.0453 311.445 58.6316 313.511 58.6316H327.583C329.649 58.6316 331.101 58.0453 331.938 56.8727C332.776 55.7 333.195 54.3878 333.195 52.936V42.8011C333.195 41.4051 332.776 40.104 331.938 38.8979C331.101 37.7029 329.649 37.1054 327.583 37.1054H311.417C308.514 37.1054 305.526 36.0445 302.455 33.9226C299.44 31.5773 297.932 28.199 297.932 23.7877V13.8203C297.932 11.5867 298.323 9.62117 299.105 7.92364C299.887 6.21495 301.003 4.83013 302.455 3.76917H302.371C303.823 2.8199 305.331 2.03814 306.894 1.42391C308.458 0.809672 309.966 0.502555 311.417 0.502555H329.677C331.129 0.502555 332.636 0.809672 334.2 1.42391C335.763 2.03814 337.271 2.8199 338.723 3.76917H338.639C340.091 4.83013 341.208 6.21495 341.99 7.92364C342.771 9.62117 343.162 11.5867 343.162 13.8203V18.7621C343.162 21.3866 341.487 22.6988 338.137 22.6988C334.842 22.6988 333.195 21.3866 333.195 18.7621V14.5741C333.195 13.1782 332.776 11.8938 331.938 10.7212C331.101 9.54858 329.649 8.96226 327.583 8.96226H313.511C311.445 8.96226 309.994 9.54858 309.156 10.7212C308.318 11.8938 307.9 13.1782 307.9 14.5741V23.1176C307.9 24.5694 308.318 25.8649 309.156 27.004C309.994 28.1543 311.445 28.7295 313.511 28.7295ZM392.312 67.0913H361.656C359.59 67.0913 358.194 66.5608 357.468 65.4999C356.742 64.4389 356.379 63.2663 356.379 61.982V5.52812C356.379 4.24381 356.742 3.08235 357.468 2.04373C358.194 1.01628 359.59 0.502555 361.656 0.502555H390.805C392.871 0.502555 393.96 1.89855 394.071 4.69053C394.183 7.53835 393.094 8.96226 390.805 8.96226H366.263V58.6316H392.312C394.378 58.6316 395.439 59.9997 395.495 62.7358C395.607 65.6395 394.546 67.0913 392.312 67.0913ZM387.705 32.4149C387.705 34.3693 387.024 36.0166 385.662 37.3567C384.288 38.6969 382.624 39.3669 380.67 39.3669C378.771 39.3669 377.152 38.6969 375.812 37.3567C374.471 36.0166 373.801 34.3693 373.801 32.4149C373.801 30.4605 374.471 28.8132 375.812 27.4731C377.152 26.1329 378.771 25.4629 380.67 25.4629C382.624 25.4629 384.288 26.1329 385.662 27.4731C387.024 28.8132 387.705 30.4605 387.705 32.4149Z" fill="#565387"/>
</g>
<defs>
<clipPath id="clip0_188_183">
<rect width="395.52" height="67.8451" fill="white"/>
</clipPath>
</defs>
</svg>
